<?xml version="1.0" encoding="UTF-8"?>
<svg width="1572px" height="850px" viewBox="0 0 1572 850" version="1.1" xmlns="http://www.w3.org/2000/svg" xmlns:xlink="http://www.w3.org/1999/xlink">
    <!-- Generator: Sketch 62 (91390) - https://sketch.com -->
    <title>Process</title>
    <desc>Created with Sketch.</desc>
    <g id="Page-1" stroke="none" stroke-width="1" fill="none" fill-rule="evenodd">
        <g id="Process" transform="translate(0.000000, 4.000000)">
            <path id="Rectangle" d="M908,-4 L908,419 L491,419 L491,-4 L908,-4 Z M900,4 L499,4 L499,411 L900,411 L900,4 Z" fill="#979797" fill-rule="nonzero"></path>
            <g id="Group" transform="translate(0.000000, 279.000000)">
                <rect id="Rectangle" stroke="#979797" stroke-width="2" fill="#D8D8D8" x="1" y="1" width="226" height="61" rx="2"></rect>
                <text id="Java" font-family="PingFangSC-Regular, PingFang SC" font-size="24" font-weight="normal" fill="#000000">
                    <tspan x="88" y="40">Java</tspan>
                </text>
            </g>
            <rect id="Rectangle" stroke="#979797" stroke-width="2" fill="#D8D8D8" x="1" y="364" width="226" height="61" rx="2"></rect>
            <text id="JavaScript/TypeScrip" font-family="PingFangSC-Regular, PingFang SC" font-size="18" font-weight="normal" fill="#000000">
                <tspan x="18" y="403">JavaScript/TypeScript</tspan>
            </text>
            <g id="Group" transform="translate(0.000000, 447.000000)">
                <rect id="Rectangle" stroke="#979797" stroke-width="2" fill="#D8D8D8" x="1" y="1" width="226" height="61" rx="2"></rect>
                <text id="Kotlin" font-family="PingFangSC-Regular, PingFang SC" font-size="24" font-weight="normal" fill="#000000">
                    <tspan x="82" y="40">Kotlin</tspan>
                </text>
            </g>
            <g id="Group" transform="translate(0.000000, 531.000000)">
                <rect id="Rectangle" stroke="#979797" stroke-width="2" fill="#D8D8D8" x="1" y="1" width="226" height="61" rx="2"></rect>
                <text id="C#" font-family="PingFangSC-Regular, PingFang SC" font-size="24" font-weight="normal" fill="#000000">
                    <tspan x="98" y="40">C#</tspan>
                </text>
            </g>
            <g id="Group" transform="translate(0.000000, 615.000000)">
                <rect id="Rectangle" stroke="#979797" stroke-width="2" fill="#D8D8D8" x="1" y="1" width="226" height="61" rx="2"></rect>
                <text id="Python" font-family="PingFangSC-Regular, PingFang SC" font-size="24" font-weight="normal" fill="#000000">
                    <tspan x="76" y="40">Python</tspan>
                </text>
            </g>
            <g id="Group" transform="translate(0.000000, 699.000000)">
                <rect id="Rectangle" stroke="#979797" stroke-width="2" fill="#D8D8D8" x="1" y="1" width="226" height="61" rx="2"></rect>
                <text id="Golang" font-family="PingFangSC-Regular, PingFang SC" font-size="24" font-weight="normal" fill="#000000">
                    <tspan x="75" y="40">Golang</tspan>
                </text>
            </g>
            <g id="Group" transform="translate(0.000000, 783.000000)">
                <rect id="Rectangle" stroke="#979797" stroke-width="2" fill="#D8D8D8" x="1" y="1" width="226" height="61" rx="2"></rect>
                <text id="…" font-family="PingFangSC-Regular, PingFang SC" font-size="24" font-weight="normal" fill="#000000">
                    <tspan x="76" y="40">…</tspan>
                </text>
            </g>
            <path id="Line-2" d="M412,183 L456,205 L412,227 L412,209 L319,209 L319,201 L412,201 L412,183 Z" fill="#979797" fill-rule="nonzero"></path>
            <path id="Line" d="M1088,182.5 L1132,204.5 L1088,226.5 L1088,208.5 L995,208.5 L995,200.5 L1088,200.5 L1088,182.5 Z" fill="#979797" fill-rule="nonzero"></path>
            <path id="Line" d="M1088,182.5 L1132,204.5 L1088,226.5 L1088,208.5 L995,208.5 L995,200.5 L1088,200.5 L1088,182.5 Z" fill="#979797" fill-rule="nonzero"></path>
            <path id="Line" d="M1088,513 L1132,535 L1088,557 L1088,539 L995,539 L995,531 L1088,531 L1088,513 Z" fill="#979797" fill-rule="nonzero"></path>
            <text id="SourceCode" font-family="PingFangSC-Semibold, PingFang SC" font-size="32" font-weight="500" fill="#000000">
                <tspan x="21" y="216">SourceCode</tspan>
            </text>
            <text id="AST-like-Model" font-family="PingFangSC-Regular, PingFang SC" font-size="32" font-weight="normal" fill="#000000">
                <tspan x="571" y="216">AST-</tspan>
                <tspan x="651.416" y="216" font-family="PingFangSC-Semibold, PingFang SC" font-weight="500">like</tspan>
                <tspan x="704.184" y="216"> Model</tspan>
            </text>
            <text id="SCM" font-family="PingFangSC-Regular, PingFang SC" font-size="32" font-weight="normal" fill="#000000">
                <tspan x="571" y="328">SCM</tspan>
            </text>
            <text id="Guard-Rules" font-family="PingFangSC-Regular, PingFang SC" font-size="32" font-weight="normal" fill="#000000">
                <tspan x="571" y="546">Guard Rules</tspan>
            </text>
            <text id="ArchGuard-Backend-Ar" font-family="PingFangSC-Regular, PingFang SC" font-size="32" font-weight="normal" fill="#000000">
                <tspan x="1277" y="194">ArchGuard Backend</tspan>
                <tspan x="1277" y="239">ArchGuard DB</tspan>
            </text>
            <text id="Continus-Intergratio" font-family="PingFangSC-Regular, PingFang SC" font-size="32" font-weight="normal" fill="#000000">
                <tspan x="1289" y="524">Continus</tspan>
                <tspan x="1289" y="569">Intergration</tspan>
            </text>
            <text id="ArchGuard-Scanner" font-family="PingFangSC-Regular, PingFang SC" font-size="32" font-weight="normal" fill="#000000">
                <tspan x="986.412" y="294.5">ArchGuard</tspan>
                <tspan x="1005.084" y="339.5">Scanner</tspan>
            </text>
            <text id="ArchGuard-Linter" font-family="PingFangSC-Regular, PingFang SC" font-size="32" font-weight="normal" fill="#000000">
                <tspan x="986.412" y="621">ArchGuard</tspan>
                <tspan x="1022.652" y="666">Linter</tspan>
            </text>
            <text id="Framework-spec-(spri" font-family="PingFangSC-Regular, PingFang SC" font-size="32" font-weight="normal" fill="#000000">
                <tspan x="571" y="79">Framework spec </tspan>
                <tspan x="571" y="124" font-size="18">(spring, jdbi, react)</tspan>
            </text>
            <text id="(Lexing-+-Paring)" font-family="PingFangSC-Regular, PingFang SC" font-size="18" font-weight="normal" fill="#000000">
                <tspan x="323.297" y="314">(Lexing + Paring)</tspan>
            </text>
            <text id="Chapi" font-family="PingFangSC-Semibold, PingFang SC" font-size="32" font-weight="500" fill="#000000">
                <tspan x="345" y="279">Chapi</tspan>
            </text>
        </g>
    </g>
</svg>
